<?xml version="1.0" encoding="UTF-8"?>
<svg width="534px" height="277px" viewBox="0 0 534 277" version="1.1" xmlns="http://www.w3.org/2000/svg" xmlns:xlink="http://www.w3.org/1999/xlink">
    <title>Group</title>
    <defs>
        <linearGradient x1="100%" y1="-3.32550221e-13%" x2="4.46431087e-13%" y2="-3.32550221e-13%" id="linearGradient-1">
            <stop stop-color="#E60001" offset="0%"></stop>
            <stop stop-color="#FFFFFF" offset="100%"></stop>
        </linearGradient>
        <linearGradient x1="100%" y1="-1.31058732e-12%" x2="-3.54084218%" y2="-1.31058732e-12%" id="linearGradient-2">
            <stop stop-color="#CBFFFE" offset="0%"></stop>
            <stop stop-color="#5CB38D" offset="48.3392112%"></stop>
            <stop stop-color="#000000" offset="100%"></stop>
        </linearGradient>
        <linearGradient x1="100%" y1="1.31042324e-12%" x2="1.2031672e-13%" y2="-2.58913546e-12%" id="linearGradient-3">
            <stop stop-color="#46F7FB" offset="0%"></stop>
            <stop stop-color="#FF4A01" offset="100%"></stop>
        </linearGradient>
        <linearGradient x1="50%" y1="0%" x2="50%" y2="100%" id="linearGradient-4">
            <stop stop-color="#1278E5" offset="0%"></stop>
            <stop stop-color="#FFAFC8" offset="100%"></stop>
        </linearGradient>
    </defs>
    <g id="Page-1" stroke="none" stroke-width="1" fill="none" fill-rule="evenodd">
        <g id="Desktop-1440" transform="translate(-453, -13104)">
            <g id="Group" transform="translate(453, 13104)">
                <path d="M185.992,93.458 L186.000002,92.5 C186.000002,143.862482 144.361399,185.5 92.9975786,185.5 C41.9539049,185.5 0.514592927,144.379911 -1.14426307e-12,93.4592738 L11.508,93.458 L11.5115276,93.8476663 C12.2312102,138.234441 48.4381406,173.994845 92.9975786,173.994845 C137.687,173.994845 173.975112,138.025506 174.489021,93.4590088 L185.992,93.458 Z" id="Combined-Shape-Copy-5" fill="url(#linearGradient-1)" fill-rule="nonzero"></path>
                <path d="M359.992,93.458 L360.000002,92.5 C360.000002,143.862482 318.361399,185.5 266.997579,185.5 C215.953905,185.5 174.514593,144.379911 174,93.4592738 L185.508,93.458 L185.511528,93.8476663 C186.23121,138.234441 222.438141,173.994845 266.997579,173.994845 C311.687,173.994845 347.975112,138.025506 348.489021,93.4590088 L359.992,93.458 Z" id="Combined-Shape-Copy-9" fill="#FFFFFF" fill-rule="nonzero" opacity="0.109999999"></path>
                <path d="M359.992,1.458 L360.000002,0.5 C360.000002,51.8624817 318.361399,93.5 266.997579,93.5 C215.953905,93.5 174.514593,52.3799109 174,1.45927376 L185.508,1.458 L185.511528,1.84766628 C186.23121,46.2344413 222.438141,81.9948454 266.997579,81.9948454 C311.687,81.9948454 347.975112,46.0255059 348.489021,1.45900879 L359.992,1.458 Z" id="Combined-Shape-Copy-7" fill="#FFFFFF" fill-rule="nonzero" opacity="0.200000003" transform="translate(267, 47) scale(1, -1) translate(-267, -47)"></path>
                <path d="M533.992,92.458 L534.000002,91.5 C534.000002,142.862482 492.361399,184.5 440.997579,184.5 C389.953905,184.5 348.514593,143.379911 348,92.4592738 L359.508,92.458 L359.511528,92.8476663 C360.23121,137.234441 396.438141,172.994845 440.997579,172.994845 C485.687,172.994845 521.975112,137.025506 522.489021,92.4590088 L533.992,92.458 Z" id="Combined-Shape-Copy-10" fill="url(#linearGradient-2)" fill-rule="nonzero"></path>
                <path d="M405.992001,47.4580012 L406.000003,46.5000012 C406.000003,97.8624829 364.3614,139.500001 312.99758,139.500001 C261.953906,139.500001 220.514594,98.379912 220.000001,47.4592749 L231.508001,47.4580012 L231.511529,47.8476674 C232.231211,92.2344425 268.438142,127.994847 312.99758,127.994847 C357.687001,127.994847 393.975113,92.025507 394.489022,47.4590099 L405.992001,47.4580012 Z" id="Combined-Shape-Copy-8" fill="url(#linearGradient-3)" fill-rule="nonzero" transform="translate(313, 93) rotate(-90) translate(-313, -93)"></path>
                <path d="M277.512855,0.5 L277.516638,0.889062488 C278.23665,45.255951 314.46011,81.0003333 359.039891,81.0003333 L359.998855,80.992 L360.000005,92.4954867 C359.68035,92.4987152 359.36031,92.5003333 359.039891,92.5003333 C307.972914,92.5003333 266.514683,51.3986672 265.999855,0.500843981 L277.512855,0.5 Z" id="Combined-Shape-Copy-11" fill="#FFFFFF" fill-rule="nonzero" opacity="0.300000012" transform="translate(312.9999, 46.5002) scale(-1, -1) translate(-312.9999, -46.5002)"></path>
                <path d="M266.045147,0.500003444 L266.045002,12.0080034 L265.656116,12.0115366 C221.26751,12.7312192 185.505631,48.9381472 185.505631,93.4975823 C185.505631,138.507113 221.993621,174.994546 267.003838,174.994546 C311.69384,174.994546 347.982443,139.024427 348.496513,94.4569045 L360.000002,94.4560034 L359.995213,95.0355473 C359.173915,145.690007 317.854791,186.5 267.003838,186.5 C215.639238,186.5 174.000002,144.861399 174.000002,93.4975823 C174.000002,42.4537038 215.122123,1.01426465 266.045147,0.500003444 Z" id="Combined-Shape-Copy-6" fill="url(#linearGradient-4)" fill-rule="nonzero" opacity="0.300000012"></path>
                <rect id="Rectangle-Copy-18" fill="#F38283" x="93.0000023" y="242.5" width="11" height="34"></rect>
            </g>
        </g>
    </g>
</svg>