<?xml version="1.0" encoding="UTF-8"?>
<svg width="67px" height="47px" viewBox="0 0 67 47" version="1.1" xmlns="http://www.w3.org/2000/svg" xmlns:xlink="http://www.w3.org/1999/xlink">
    <title>Group 7 Copy 8</title>
    <g id="Page-1" stroke="none" stroke-width="1" fill="none" fill-rule="evenodd">
        <g id="Desktop-1440" transform="translate(-200, -3833)">
            <g id="Group-7-Copy-8" transform="translate(200, 3833)">
                <g id="Group-5" transform="translate(33.5, 23.5) rotate(-270) translate(-33.5, -23.5)translate(10, -10)">
                    <path d="M22.5,21.5313512 L22.5,26.5104058 C18.1204751,26.7574798 14.1693351,28.6173048 11.2249353,31.5092755 C8.05230343,34.6254142 6.04886469,38.9401267 5.93916909,43.7255559 C6.04538931,48.5590472 8.04760259,52.8768762 11.2203185,55.995479 C14.3876082,59.1087483 18.7210782,61.0271042 23.5,61.0271042 C28.4392981,60.9352407 32.8119434,58.9408708 35.9611587,55.7741849 C38.9129741,52.8059939 40.7913123,48.8065776 41.0378694,44.369631 L45.978427,44.369631 C45.7254367,50.221727 43.2627622,55.4974792 39.4079493,59.373677 C35.3367501,63.4674617 29.7125734,66 23.5,66 L23.556,66.056 L23.443,66.056 L23.5,66 C17.5761226,66 12.1872004,63.6973848 8.1695625,59.9341671 L7.85524474,59.6340519 C3.79822048,55.6854005 1.21443886,50.2156016 1.01276389,44.137889 C1.21314422,37.7234745 3.76330606,32.0876245 7.78280538,28.0437355 C11.6145546,24.1887358 16.7799006,21.7833286 22.5,21.5313512 Z M24.5,1.02195162 C30.3147723,1.2777438 35.5563436,3.75335003 39.4079493,7.62632298 C43.4811454,11.7221155 46,17.3805296 46,23.630369 C46,29.8802084 43.4811454,35.5386225 39.4079493,39.6344151 C35.5563436,43.507388 30.3147723,45.9829943 24.5,46.2387864 L24.5,41.2597093 C28.9531407,41.0084842 32.9633896,39.0898464 35.9226896,36.1141294 C39.0999363,32.9192565 41.0655738,28.5057101 41.0655738,23.630369 C41.0655738,18.755028 39.0999363,14.3414815 35.9226896,11.1466086 C32.9633896,8.17089161 28.9531407,6.25225381 24.5,6.00102871 Z" id="Combined-Shape" stroke="#000000" stroke-width="2" fill="#FFFFFF"></path>
                    <path d="M-7.10542736e-15,7.531753e-13 C12.9786916,7.531753e-13 23.5,10.5796766 23.5,23.630369 L16.5655738,23.630369 C16.5655738,14.4307006 9.14891377,6.97289578 -1.42108547e-14,6.97289578 L-7.10542736e-15,7.531753e-13 Z" id="Combined-Shape-Copy-52" fill="#FF5400" transform="translate(11.75, 11.8152) scale(-1, 1) translate(-11.75, -11.8152)"></path>
                    <path d="M23.5,20.5093769 C36.4786916,20.5093769 47,31.0890535 47,44.1397459 L40.0655738,44.1397459 C40.0655738,34.9400775 32.6489138,27.4822727 23.5,27.4822727 L23.5,20.5093769 Z" id="Combined-Shape-Copy-53" fill="#FF5400"></path>
                    <path d="M-7.10542736e-15,23.630369 C12.9786916,23.630369 23.5,34.2100456 23.5,47.2607381 L16.5655738,47.2607381 C16.5655738,38.0610696 9.14891377,30.6032648 -1.42108547e-14,30.6032648 L-7.10542736e-15,23.630369 Z" id="Combined-Shape-Copy-56" fill="#FF5400" transform="translate(11.75, 35.4456) scale(-1, -1) translate(-11.75, -35.4456)"></path>
                </g>
            </g>
        </g>
    </g>
</svg>