<?xml version="1.0" encoding="UTF-8"?>
<svg width="365px" height="54px" viewBox="0 0 365 54" version="1.1" xmlns="http://www.w3.org/2000/svg" xmlns:xlink="http://www.w3.org/1999/xlink">
    <title>Group 9 Copy 21</title>
    <defs>
        <path d="M4.889209,0 L4.889209,11.016187 C6.6524564,8.7244985 8.81644183,8.04101244 11.0605749,8.04101244 C16.6709075,8.04101244 19.1554834,11.8604933 19.1554834,17.6902274 L19.1508131,25.1784678 C17.5190202,25.3534842 15.8896102,25.5364281 14.2626226,25.7272599 L14.2664792,17.7304324 C14.2664792,14.1119768 12.3830104,12.5841845 9.77821314,12.5841845 C6.89289922,12.5841845 4.889209,15.0366933 4.889209,18.0118679 L4.88456218,26.9180101 C3.25382154,27.1409042 1.62562063,27.3717386 -2.13162821e-14,27.6104731 L0.00020486364,0 L4.889209,0 Z M137.227939,7.759577 C140.313622,7.759577 142.637902,8.36265294 144.922109,10.372906 L142.197091,13.589311 C140.794507,12.262544 139.191555,11.8202883 137.308086,11.8202883 C134.983806,11.8202883 133.701444,12.5439794 133.701444,13.7903363 C133.701444,15.0768983 134.863584,15.8005894 137.388234,15.9614097 C141.115098,16.2026401 145.843807,17.0469464 145.843807,22.3138095 C145.843807,24.2939279 144.932003,26.1194339 143.115666,27.3308177 L143.118748,27.3209788 C138.224499,26.6226402 133.307074,25.9958739 128.367572,25.4417783 L128.211333,25.2889841 L130.615761,21.7911437 C132.018344,23.3591411 135.224249,24.5250879 137.428308,24.565293 C139.271703,24.6054981 140.994876,23.6405766 140.994876,22.1931943 C140.994876,20.8262222 139.87281,20.2633513 137.067644,20.1025311 C133.34078,19.8210957 128.892588,18.4541235 128.892588,13.9511566 C128.892588,9.36777949 133.621296,7.759577 137.227939,7.759577 Z M117.035751,8.00080738 C121.684312,8.00080738 125.411176,11.4986478 125.411176,17.7304324 L125.415819,25.119598 C123.787287,24.9467719 122.156388,24.7818409 120.523161,24.624844 L120.522172,17.7706375 C120.522172,14.7552578 118.879146,12.4635693 115.753389,12.4635693 C112.747854,12.4635693 110.70409,14.9964882 110.70409,18.0118679 L110.708355,23.7793139 C109.093464,23.6562646 107.476398,23.5409618 105.857195,23.4334428 L105.855159,8.28224281 L110.223204,8.28224281 L110.543794,10.975982 C112.547485,9.00593393 114.551175,8.00080738 117.035751,8.00080738 Z M27.5659731,8.32244787 L27.5659731,19.7653952 C27.5659731,21.655511 28.211534,23.2612814 29.4631774,24.1965312 L29.4595211,24.1813464 C27.5007953,24.3502462 25.5453437,24.5305495 23.5932333,24.7221896 C23.0037401,23.3499267 22.6769689,21.699751 22.6769689,19.8056003 L22.6769689,8.32244787 L27.5659731,8.32244787 Z M42.2329855,8.32244787 L42.2294193,23.2452187 C40.058919,23.3763756 37.8922066,23.5215147 35.7293716,23.680547 L35.7334576,23.6970102 C36.7752133,22.6720525 37.3840552,21.1699717 37.3840552,19.5241648 L37.3840552,8.32244787 L42.2329855,8.32244787 Z M91.0328608,7.83998713 C93.6777319,7.83998713 96.2023816,9.08634406 97.3244481,11.0563921 L97.4847433,8.32244787 L102.173378,8.32244787 L102.177299,23.2027218 C99.8976529,23.0682315 97.6138424,22.9491641 95.3259711,22.8456227 L95.3243602,22.8567489 C98.8233553,19.6945707 97.5397928,12.2223389 91.4736727,12.2223389 C88.2276945,12.2223389 85.6228972,14.4336173 85.6228972,18.2128932 C85.6228972,20.0488482 86.2376221,21.5242485 87.2419505,22.5561254 L87.2453382,22.5451365 C85.2882997,22.488131 83.3284027,22.4424813 81.3657109,22.4082513 C80.9549906,21.1865936 80.7338931,19.7849805 80.7338931,18.2128932 C80.7338931,11.3780326 85.262233,7.79978207 91.0328608,7.83998713 Z M56.3339554,7.96060231 C58.6983099,7.96060231 61.0626643,8.92552381 62.1847309,11.659468 C63.9479783,8.84511368 66.2321851,8.04101244 68.7969086,8.04101244 C74.4072412,8.04101244 77.1723337,11.4986478 77.1723337,17.448997 L77.1762443,22.3525907 C75.6389028,22.3385483 74.0998815,22.3315118 72.5592108,22.3315118 L72.283,22.333 L72.2833296,17.448997 C72.2833296,14.8356679 71.2013369,12.6243895 68.5564658,12.6243895 C65.9115947,12.6243895 64.2685687,14.9160781 64.2685687,17.5294071 L64.2686577,22.3995171 C62.6357908,22.426323 61.0048534,22.4610329 59.3758822,22.5036101 L59.3795646,17.5294071 C59.3795646,14.9160781 58.0170552,12.5439794 55.3321103,12.5439794 C52.6872392,12.5439794 51.1243608,14.9160781 51.1243608,17.5294071 L51.1205074,22.7872834 C49.4890349,22.8567849 47.8596144,22.9341808 46.2322833,23.0194339 L46.2353567,8.28224281 L50.7636966,8.28224281 L51.1243608,10.6945465 C52.1662798,8.68429343 54.4504866,7.96060231 56.3339554,7.96060231 Z" id="path-1"></path>
    </defs>
    <g id="Page-1" stroke="none" stroke-width="1" fill="none" fill-rule="evenodd">
        <g id="Desktop-1440" transform="translate(-146, -12919)">
            <g id="Group-9-Copy-21" transform="translate(146.0007, 12920)">
                <g id="Group-9-Copy-7" transform="translate(-0, 0)">
                    <g id="Bitmap-Copy-21" transform="translate(0, 7.3628)">
                        <mask id="mask-2" fill="white">
                            <use xlink:href="#path-1"></use>
                        </mask>
                        <use id="Mask" fill="#FFFFFF" xlink:href="#path-1"></use>
                    </g>
                    <line x1="161.256428" y1="51.7699115" x2="161.256428" y2="0.230088496" id="Line-Copy-8" stroke="#FFFFFF" stroke-width="2" opacity="0.343308222" stroke-linecap="square"></line>
                    <g id="BLOCKCHAIN" transform="translate(178.8112, 16.7688)" fill="#FFFFFF" fill-rule="nonzero">
                        <path d="M15.1052889,7.92976991 C16.4965655,7.13458407 17.0928269,5.78718584 17.0928269,4.37352212 C17.0928269,2.20884956 15.7678016,0.441769912 12.3669032,0.441769912 L0,0.441769912 L0,15.9037168 L13.0956671,15.9037168 C16.1653092,15.9037168 17.8436746,14.2691681 17.8436746,11.6848142 C17.8436746,9.67476106 16.7394868,8.5040708 15.1052889,7.92976991 Z M12.0577306,1.61246018 C14.4427762,1.61246018 15.7457178,2.496 15.7457178,4.52814159 C15.7457178,6.82534513 14.0011011,7.488 12.0577306,7.488 L1.28085783,7.488 L1.28085783,1.61246018 L12.0577306,1.61246018 Z M1.28085783,14.7330265 L1.28085783,8.68077876 L12.8085783,8.68077876 C14.7519488,8.68077876 16.4744818,9.34343363 16.4744818,11.6627257 C16.4744818,13.8494867 15.1936239,14.7330265 12.8085783,14.7330265 L1.28085783,14.7330265 Z" id="Shape"></path>
                        <polygon id="Path" points="22.2825095 0.441769912 21.0016517 0.441769912 21.0016517 15.9037168 34.980669 15.9037168 34.980669 14.7330265 22.2825095 14.7330265"></polygon>
                        <path d="M45.6692068,16.3454867 C51.7864071,16.3454867 55.1652218,13.0763894 55.1652218,8.15065487 C55.1652218,3.24700885 51.7864071,0 45.6692068,0 C39.5299227,0 36.1731918,3.22492035 36.1731918,8.15065487 C36.1731918,13.0984779 39.5299227,16.3454867 45.6692068,16.3454867 Z M45.6692068,15.1747965 C40.5236917,15.1747965 37.5203009,12.524177 37.5203009,8.15065487 C37.5203009,3.79922124 40.501608,1.17069027 45.6692068,1.17069027 C50.8368056,1.17069027 53.7960289,3.82130973 53.7960289,8.15065487 C53.7960289,12.5020885 50.8147219,15.1747965 45.6692068,15.1747965 Z" id="Shape"></path>
                        <path d="M58.3231988,8.15065487 C58.3231988,13.0984779 61.7682647,16.3454867 67.7529625,16.3454867 C72.9426451,16.3454867 75.9902034,13.6065133 76.4981298,10.3595044 L75.1289369,10.3595044 C74.665178,12.7450619 72.3463837,15.1747965 67.7529625,15.1747965 C62.5853637,15.1747965 59.6703079,12.4579115 59.6703079,8.15065487 C59.6703079,3.86548673 62.5632799,1.17069027 67.7529625,1.17069027 C72.3684674,1.17069027 74.665178,3.57833628 75.1289369,5.94180531 L76.476046,5.94180531 C75.9902034,2.71688496 72.9426451,0 67.7529625,0 C61.7682647,0 58.3231988,3.22492035 58.3231988,8.15065487 Z" id="Path"></path>
                        <polygon id="Path" points="94.9380658 0.441769912 81.1578022 10.6245664 81.1578022 0.441769912 79.8769444 0.441769912 79.8769444 15.9037168 81.1578022 15.9037168 81.1578022 12.2149381 87.054165 7.86350442 95.2030708 15.9037168 97.0581063 15.9037168 88.0700178 7.09040708 97.0581063 0.441769912"></polygon>
                        <path d="M98.1622941,8.15065487 C98.1622941,13.0984779 101.60736,16.3454867 107.592058,16.3454867 C112.78174,16.3454867 115.829299,13.6065133 116.337225,10.3595044 L114.968032,10.3595044 C114.504273,12.7450619 112.185479,15.1747965 107.592058,15.1747965 C102.424459,15.1747965 99.5094032,12.4579115 99.5094032,8.15065487 C99.5094032,3.86548673 102.402375,1.17069027 107.592058,1.17069027 C112.207563,1.17069027 114.504273,3.57833628 114.968032,5.94180531 L116.315141,5.94180531 C115.829299,2.71688496 112.78174,0 107.592058,0 C101.60736,0 98.1622941,3.22492035 98.1622941,8.15065487 Z" id="Path"></path>
                        <polygon id="Path" points="136.013851 7.57635398 120.996898 7.57635398 120.996898 0.441769912 119.71604 0.441769912 119.71604 15.9037168 120.996898 15.9037168 120.996898 8.76913274 136.013851 8.76913274 136.013851 15.9037168 137.294709 15.9037168 137.294709 0.441769912 136.013851 0.441769912"></polygon>
                        <path d="M160.151396,15.9037168 L150.94247,0.441769912 L149.374524,0.441769912 L140.187681,15.9037168 L141.645209,15.9037168 L143.986087,11.9498761 L156.330907,11.9498761 L158.671785,15.9037168 L160.151396,15.9037168 Z M150.169539,1.52410619 L155.624226,10.7570973 L144.692767,10.7570973 L150.169539,1.52410619 Z" id="Shape"></path>
                        <polygon id="Path" points="163.022285 0.441769912 163.022285 15.9037168 164.303142 15.9037168 164.303142 0.441769912"></polygon>
                        <polygon id="Path" points="184.907287 14.6667611 170.155338 0.441769912 168.34447 0.441769912 168.34447 15.9037168 169.625328 15.9037168 169.625328 1.67872566 184.377276 15.9037168 186.188144 15.9037168 186.188144 0.441769912 184.907287 0.441769912"></polygon>
                    </g>
                </g>
            </g>
        </g>
    </g>
</svg>