<?xml version="1.0" encoding="UTF-8"?>
<svg version="1.1" xmlns="http://www.w3.org/2000/svg" width="365" height="54">
<path d="M0 0 C2.31 0 4.62 0 7 0 C9.31 4.29 11.62 8.58 14 13 C14.33 8.71 14.66 4.42 15 0 C16.65 0 18.3 0 20 0 C20 7.92 20 15.84 20 24 C18.02 24 16.04 24 14 24 C10.04 17.07 10.04 17.07 6 10 C5.67 14.62 5.34 19.24 5 24 C3.35 24 1.7 24 0 24 C0 16.08 0 8.16 0 0 Z " fill="#FFFFFF" transform="translate(60,16)"/>
<path d="M0 0 C12 0 12 0 16 2 C16.99549067 5.2708979 17.32868536 7.16733041 16.0625 10.375 C15.711875 10.91125 15.36125 11.4475 15 12 C15.99 13.485 15.99 13.485 17 15 C16.92597095 18.55339426 16.66774689 20.33225311 14.125 22.875 C11 24 11 24 0 24 C0 16.08 0 8.16 0 0 Z M5 4 C5 5.98 5 7.96 5 10 C7.41645782 10.16687448 7.41645782 10.16687448 10 10 C10.66 9.34 11.32 8.68 12 8 C11.6814823 5.89179203 11.6814823 5.89179203 11 4 C9.02 4 7.04 4 5 4 Z M5 14 C5 15.98 5 17.96 5 20 C8.465 19.505 8.465 19.505 12 19 C12 17.68 12 16.36 12 15 C9.69 14.67 7.38 14.34 5 14 Z " fill="#FFFFFF" transform="translate(199,16)"/>
<path d="M0 0 C2.31 0 4.62 0 7 0 C8.17134222 3.62350621 9.33627802 7.24903999 10.5 10.875 C10.83386719 11.90753906 11.16773438 12.94007812 11.51171875 14.00390625 C11.82753906 14.99003906 12.14335937 15.97617187 12.46875 16.9921875 C12.90864258 18.35899658 12.90864258 18.35899658 13.35742188 19.75341797 C14 22 14 22 14 24 C12.02 24 10.04 24 8 24 C7.67 22.02 7.34 20.04 7 18 C4.69 18 2.38 18 0 18 C-0.33 19.98 -0.66 21.96 -1 24 C-2.98 24 -4.96 24 -7 24 C-5.08927776 15.83600499 -2.76477561 7.9153982 0 0 Z M3 5 C2.34 7.97 1.68 10.94 1 14 C2.65 14 4.3 14 6 14 C5.34 11.03 4.68 8.06 4 5 C3.67 5 3.34 5 3 5 Z " fill="#FFFFFF" transform="translate(141,16)"/>
<path d="M0 0 C2.94048778 1.76429267 4.55696297 3.29516836 6.375 6.1875 C7.55185606 11.48335225 6.91994371 16.16011259 4.5 21 C0.90153473 23.87877221 -2.44091966 24.41520196 -7 24 C-10.11182072 22.27856726 -11.50116312 20.79360413 -13.375 17.8125 C-14.2851718 13.71672691 -14.03724944 10.06072122 -13 6 C-9.33485356 0.32493454 -6.69544271 -0.5674104 0 0 Z M-7.8125 5.5 C-9.4971479 9.04662716 -9.57735621 12.14041327 -9 16 C-7.99963019 18.56008963 -7.99963019 18.56008963 -6 20 C-3.5 20.66666667 -3.5 20.66666667 -1 20 C1.1446305 18.22513338 1.87365521 16.84460623 2.28515625 14.09375 C2.42728557 10.78151898 2.24703256 8.52006854 0.8125 5.5 C-0.94285404 3.80598594 -0.94285404 3.80598594 -3.5 3.5 C-6.05714596 3.80598594 -6.05714596 3.80598594 -7.8125 5.5 Z " fill="#FFFFFF" transform="translate(43,16)"/>
<path d="M0 0 C4.62 0 9.24 0 14 0 C14 1.32 14 2.64 14 4 C11.03 4 8.06 4 5 4 C5 5.98 5 7.96 5 10 C7.97 10 10.94 10 14 10 C14 11.32 14 12.64 14 14 C11.03 14 8.06 14 5 14 C5 15.98 5 17.96 5 20 C8.3 20 11.6 20 15 20 C15 21.32 15 22.64 15 24 C10.05 24 5.1 24 0 24 C0 16.08 0 8.16 0 0 Z " fill="#FFFFFF" transform="translate(91,16)"/>
<path d="M0 0 C1.65 0 3.3 0 5 0 C5.33 4.29 5.66 8.58 6 13 C6.99 11.35 7.98 9.7 9 8 C12.6875 7.6875 12.6875 7.6875 16 8 C14.35 9.98 12.7 11.96 11 14 C12.45044271 18.10958767 14.51110752 21.43258745 17 25 C13.75 25.375 13.75 25.375 10 25 C7.5625 22 7.5625 22 6 19 C5.67 20.98 5.34 22.96 5 25 C3.35 25 1.7 25 0 25 C0 16.75 0 8.5 0 0 Z " fill="#FFFFFF" transform="translate(265,15)"/>
<path d="M0 0 C1.65 0 3.3 0 5 0 C5.33 2.97 5.66 5.94 6 9 C9.465 8.505 9.465 8.505 13 8 C15.34290892 10.48434437 15.97982934 11.77731593 16.29296875 15.234375 C16.25816406 16.39453125 16.22335937 17.5546875 16.1875 18.75 C16.16042969 19.92046875 16.13335937 21.0909375 16.10546875 22.296875 C16.07066406 23.18890625 16.03585937 24.0809375 16 25 C14.35 25 12.7 25 11 25 C10.67 21.04 10.34 17.08 10 13 C8.68 13 7.36 13 6 13 C5.67 16.96 5.34 20.92 5 25 C3.35 25 1.7 25 0 25 C0 16.75 0 8.5 0 0 Z " fill="#FFFFFF" transform="translate(299,15)"/>
<path d="M0 0 C1.98 0.495 1.98 0.495 4 1 C4 15.19 4 29.38 4 44 C2.02 44.495 2.02 44.495 0 45 C-1.53084425 43.46915575 -1.12715779 42.08796856 -1.12939453 39.95507812 C-1.13254669 39.09748901 -1.13569885 38.2398999 -1.13894653 37.35632324 C-1.1369223 36.42404907 -1.13489807 35.4917749 -1.1328125 34.53125 C-1.13376923 33.58060669 -1.13472595 32.62996338 -1.13571167 31.6505127 C-1.13639357 29.63631118 -1.13453862 27.62210748 -1.13037109 25.60791016 C-1.12502298 22.51329645 -1.13031577 19.4188279 -1.13671875 16.32421875 C-1.13605797 14.37239551 -1.13477681 12.42057236 -1.1328125 10.46875 C-1.13483673 9.53647583 -1.13686096 8.60420166 -1.13894653 7.64367676 C-1.13579437 6.78608765 -1.13264221 5.92849854 -1.12939453 5.04492188 C-1.12859894 4.28626831 -1.12780334 3.52761475 -1.12698364 2.74597168 C-1 1 -1 1 0 0 Z " fill="#FFFFFF" transform="translate(182,5)"/>
<path d="M0 0 C2.2421875 1.59765625 2.2421875 1.59765625 4 4 C4.390625 7.234375 4.390625 7.234375 4.25 10.75 C4.21390625 11.92046875 4.1778125 13.0909375 4.140625 14.296875 C4.07101562 15.63492188 4.07101562 15.63492188 4 17 C2.06318839 17.08107583 0.1254066 17.13922475 -1.8125 17.1875 C-2.89144531 17.22230469 -3.97039062 17.25710937 -5.08203125 17.29296875 C-8 17 -8 17 -9.88671875 15.67578125 C-11 14 -11 14 -11 11 C-10 8 -10 8 -7.4375 6.125 C-6.2309375 5.568125 -6.2309375 5.568125 -5 5 C-5.639375 4.896875 -6.27875 4.79375 -6.9375 4.6875 C-7.618125 4.460625 -8.29875 4.23375 -9 4 C-9.33 3.01 -9.66 2.02 -10 1 C-6.87057535 -0.56471233 -3.38917777 -0.69701958 0 0 Z M-5 9 C-5.33 10.32 -5.66 11.64 -6 13 C-4.35 12.67 -2.7 12.34 -1 12 C-1 11.01 -1 10.02 -1 9 C-2.32 9 -3.64 9 -5 9 Z " fill="#FFFFFF" transform="translate(329,23)"/>
<path d="M0 0 C2.475 0.495 2.475 0.495 5 1 C5.66 0.67 6.32 0.34 7 0 C9.9375 -0.3125 9.9375 -0.3125 13 0 C15.51184797 2.38917632 15.97762806 3.75301375 16.29296875 7.234375 C16.25816406 8.39453125 16.22335937 9.5546875 16.1875 10.75 C16.16042969 11.92046875 16.13335937 13.0909375 16.10546875 14.296875 C16.07066406 15.18890625 16.03585937 16.0809375 16 17 C14.35 17 12.7 17 11 17 C10.67 13.04 10.34 9.08 10 5 C8.68 5 7.36 5 6 5 C5.67 8.96 5.34 12.92 5 17 C3.35 17 1.7 17 0 17 C0 11.39 0 5.78 0 0 Z " fill="#FFFFFF" transform="translate(347,23)"/>
<path d="M0 0 C3.38216497 2.16805447 3.898503 3.594012 4.875 7.5 C5.04878049 12.36585366 5.04878049 12.36585366 3 15 C-0.22794238 17.30567313 -3.11566819 17.32369432 -7 17 C-9.55376992 16.14874336 -10.66416489 15.431788 -12.3125 13.3125 C-13.33096265 9.88676201 -12.86045982 7.44183926 -12 4 C-9.01146514 -0.66211439 -5.13801692 -1.02338325 0 0 Z M-6 4 C-8.2491908 5.82703227 -8.2491908 5.82703227 -8.25 8.5 C-8.2491908 11.17296773 -8.2491908 11.17296773 -6 13 C-2.69316534 12.71016731 -2.69316534 12.71016731 0 11 C0.2500773 8.54190002 0.2500773 8.54190002 0 6 C-0.66 5.34 -1.32 4.68 -2 4 C-3.32 4 -4.64 4 -6 4 Z " fill="#FFFFFF" transform="translate(241,23)"/>
<path d="M0 0 C5.61 0 11.22 0 17 0 C17 1.32 17 2.64 17 4 C15.02 4 13.04 4 11 4 C11 10.6 11 17.2 11 24 C9.35 24 7.7 24 6 24 C6 17.4 6 10.8 6 4 C4.02 4 2.04 4 0 4 C0 2.68 0 1.36 0 0 Z " fill="#FFFFFF" transform="translate(2,16)"/>
<path d="M0 0 C1.65 0 3.3 0 5 0 C5 8.25 5 16.5 5 25 C3.35 25 1.7 25 0 25 C0 16.75 0 8.5 0 0 Z " fill="#FFFFFF" transform="translate(220,15)"/>
<path d="M0 0 C0.33 1.32 0.66 2.64 1 4 C-1.31 4.66 -3.62 5.32 -6 6 C-6 7.65 -6 9.3 -6 11 C-3.69 11.66 -1.38 12.32 1 13 C0.67 14.32 0.34 15.64 0 17 C-3.43707561 17.19829282 -6.17067842 17.34918804 -9.375 16 C-11.85045612 12.95328478 -12.07015062 9.85828416 -12 6 C-11.20872067 3.26648957 -10.54481894 2.38915639 -8.25 0.75 C-5.42246362 -0.19251213 -2.96006696 -0.1345485 0 0 Z " fill="#FFFFFF" transform="translate(294,23)"/>
<path d="M0 0 C0.33 1.32 0.66 2.64 1 4 C-1.31 4.66 -3.62 5.32 -6 6 C-6 7.65 -6 9.3 -6 11 C-3.69 11.66 -1.38 12.32 1 13 C0.67 14.32 0.34 15.64 0 17 C-3.43707561 17.19829282 -6.17067842 17.34918804 -9.375 16 C-11.85045612 12.95328478 -12.07015062 9.85828416 -12 6 C-11.20872067 3.26648957 -10.54481894 2.38915639 -8.25 0.75 C-5.42246362 -0.19251213 -2.96006696 -0.1345485 0 0 Z " fill="#FFFFFF" transform="translate(260,23)"/>
<path d="M0 0 C1.65 0 3.3 0 5 0 C5 7.92 5 15.84 5 24 C3.35 24 1.7 24 0 24 C0 16.08 0 8.16 0 0 Z " fill="#FFFFFF" transform="translate(163,16)"/>
<path d="M0 0 C1.65 0 3.3 0 5 0 C5 5.61 5 11.22 5 17 C3.35 17 1.7 17 0 17 C0 11.39 0 5.78 0 0 Z " fill="#FFFFFF" transform="translate(337,23)"/>
<path d="M0 0 C2.97 0 5.94 0 9 0 C9 1.32 9 2.64 9 4 C6.03 4 3.06 4 0 4 C0 2.68 0 1.36 0 0 Z " fill="#FFFFFF" transform="translate(116,29)"/>
<path d="M0 0 C1.98 0.495 1.98 0.495 4 1 C3.67 2.32 3.34 3.64 3 5 C1.68 4.67 0.36 4.34 -1 4 C-0.67 2.68 -0.34 1.36 0 0 Z " fill="#FFFFFF" transform="translate(338,16)"/>
</svg>
