<?xml version="1.0" encoding="UTF-8"?>
<svg width="48px" height="68px" viewBox="0 0 48 68" version="1.1" xmlns="http://www.w3.org/2000/svg" xmlns:xlink="http://www.w3.org/1999/xlink">
    <title>Group 7 Copy 2</title>
    <g id="Page-1" stroke="none" stroke-width="1" fill="none" fill-rule="evenodd">
        <g id="Artboard" transform="translate(-572, -214)" fill="#FFFFFF">
            <g id="Group-7-Copy-2" transform="translate(596.0226, 247.5226) rotate(-270) translate(-596.0226, -247.5226)translate(562.5226, 224.0226)">
                <g id="Group-5" transform="translate(33.5, 23.5) rotate(-270) translate(-33.5, -23.5)translate(10, -10)">
                    <g id="Group-9" transform="translate(0, 0)" stroke="#000000" stroke-width="2">
                        <path d="M23.5,21.5093769 C29.5797689,21.5093769 35.0960566,23.9347769 39.1447553,27.875325 C43.2017795,31.8239764 45.7855611,37.2937752 45.9872361,43.3714879 C45.7868558,49.7859024 43.2366939,55.4217523 39.2171946,59.4656413 C35.1633682,63.5440657 29.6168828,66 23.5,66 C17.4202311,66 11.9039434,63.5746 7.85524474,59.6340519 C3.79822048,55.6854005 1.21443886,50.2156016 1.01276389,44.137889 C1.21314422,37.7234745 3.76330606,32.0876245 7.78280538,28.0437355 C11.8366318,23.9653112 17.3831172,21.5093769 23.5,21.5093769 Z M23.1626091,26.4854684 C18.4588775,26.5746405 14.2071069,28.5221766 11.1040057,31.6291994 C8.00147063,34.7356553 6.04746435,39.0012158 5.93915249,43.7706535 C6.04538931,48.5590472 8.04760259,52.8768762 11.2203185,55.995479 C14.3829246,59.1041445 18.7078133,61.0272832 23.8373909,61.0239085 C28.5434037,60.9346931 32.7970177,58.9853111 35.9005086,55.8756559 C39.0032052,52.7667965 40.9560938,48.4982187 41.0611012,43.7259517 C40.9507967,38.9200289 38.9312081,34.5889306 35.6933262,31.4692467 C32.4926668,28.3854265 28.1001873,26.4836999 23.1626091,26.4854684 Z M23.5,1 C29.7125734,1 35.3367501,3.53253825 39.4079493,7.62632298 C43.2627622,11.5025208 45.7254367,16.778273 45.978427,22.630369 L41.037877,22.630369 C40.7892153,18.1531721 38.8812242,14.121556 35.9226896,11.1466086 C32.7434461,7.94972787 28.3512293,5.97289578 23.5,5.97289578 C18.5607019,6.0647593 14.1880566,8.05912918 11.0388413,11.2258151 C8.08702591,14.1940061 6.2086877,18.1934224 5.96213056,22.630369 L1.02157297,22.630369 C1.27456331,16.778273 3.73723785,11.5025208 7.59205066,7.62632298 C11.6632499,3.53253825 17.2874266,1 23.5,1 Z" id="Combined-Shape"></path>
                    </g>
                    <path d="M23.5,23.630369 C36.4786916,23.630369 47,34.2100456 47,47.2607381 L40.0655738,47.2607381 C40.0655738,38.0610696 32.6489138,30.6032648 23.5,30.6032648 L23.5,23.630369 Z" id="Combined-Shape-Copy-54" opacity="0.300000012" transform="translate(35.25, 35.4456) scale(1, -1) translate(-35.25, -35.4456)"></path>
                    <path d="M5.31841238e-12,23.630369 C12.9786916,23.630369 23.5,34.2100456 23.5,47.2607381 L16.5655738,47.2607381 C16.5655738,38.0610696 9.14891377,30.6032648 5.31130695e-12,30.6032648 L5.31841238e-12,23.630369 Z" id="Combined-Shape-Copy-56" opacity="0.300000012" transform="translate(11.75, 35.4456) scale(-1, -1) translate(-11.75, -35.4456)"></path>
                </g>
            </g>
        </g>
    </g>
</svg>