<?xml version="1.0" encoding="UTF-8"?>
<svg width="95px" height="95px" viewBox="0 0 95 95" version="1.1" xmlns="http://www.w3.org/2000/svg" xmlns:xlink="http://www.w3.org/1999/xlink">
    <title>Group 5 Copy 7</title>
    <g id="Page-1" stroke="none" stroke-width="1" fill="none" fill-rule="evenodd">
        <g id="Artboard" transform="translate(-123, -201)" fill="#FFFFFF">
            <g id="Group-5-Copy-7" transform="translate(123, 201)">
                <g id="Group-5-Copy" transform="translate(47.0226, 47.0226) rotate(-315) translate(-47.0226, -47.0226)translate(23.5226, 4.0226)">
                    <path d="M23.5,1 C29.5801726,1 35.0969674,3.41709332 39.145982,7.34458633 C43.2021182,11.2789871 45.7856127,16.72896 45.9872401,22.7843418 C45.7866472,29.1757622 43.2367302,34.7911594 39.2181154,38.82038 C35.1640018,42.885193 29.6171275,45.332578 23.5,45.332578 C18.6855142,45.4837311 14.3501018,47.4789682 11.1875176,50.629098 C8.03536934,53.768833 6.04820271,58.0548587 5.93915195,62.8055223 C6.04575516,67.6239795 8.04837412,71.928176 11.2219753,75.0368479 C14.3889187,78.1389981 18.7217002,80.0507555 23.5,80.0507555 C28.4388579,79.9592111 32.8110307,77.9715149 35.9599598,74.8158568 C38.9119402,71.8575682 40.7903884,67.8716688 41.0376913,63.4497825 L45.9782728,63.4497825 C45.7244536,69.2793347 43.2622979,74.5345659 39.4091483,78.3959493 C35.3376422,82.4761559 29.7129597,85 23.5,85 C17.4198274,85 11.9030326,82.5829067 7.85401796,78.6554137 C3.79788185,74.7210129 1.21438729,69.27104 1.01275988,63.2156582 C1.21335278,56.8242378 3.76326979,51.2088406 7.78188462,47.17962 C11.8359982,43.114807 17.3828725,40.667422 23.5,40.667422 C28.316576,40.5162645 32.6536991,38.519342 35.8166448,35.366798 C38.9689557,32.2248538 40.9550962,27.9360414 41.0611118,23.1828239 C40.9511649,18.3668497 38.9473629,14.0654337 35.7738295,10.9589835 C32.6071971,7.85928836 28.2761578,5.94924452 23.5,5.94924452 C18.5611421,6.04078886 14.1889693,8.02848513 11.0400402,11.1841432 C8.08805977,14.1424318 6.20961159,18.1283312 5.96230868,22.5502175 L1.02172718,22.5502175 C1.27554642,16.7206653 3.73770214,11.4654341 7.59085173,7.60405069 C11.6623578,3.52384412 17.2870403,1 23.5,1 Z" id="Combined-Shape" stroke="#000000" stroke-width="2"></path>
                    <path d="M23.5,39.667422 C36.4786916,39.667422 47,50.2112136 47,63.2176396 L40.0655738,63.2176396 C40.0655738,54.0491754 32.6489138,46.6166666 23.5,46.6166666 L23.5,39.667422 Z" id="Combined-Shape-Copy-53" opacity="0.200000003"></path>
                    <path d="M8.4219348e-15,22.7823604 C12.9786916,22.7823604 23.5,33.3261519 23.5,46.332578 L16.5655738,46.332578 C16.5655738,37.1641137 9.14891377,29.7316049 1.31650744e-15,29.7316049 L8.4219348e-15,22.7823604 Z" id="Combined-Shape-Copy-56" opacity="0.200000003" transform="translate(11.75, 34.5575) scale(-1, -1) translate(-11.75, -34.5575)"></path>
                </g>
            </g>
        </g>
    </g>
</svg>