<?xml version="1.0" encoding="UTF-8"?>
<svg width="163px" height="85px" viewBox="0 0 163 85" version="1.1" xmlns="http://www.w3.org/2000/svg" xmlns:xlink="http://www.w3.org/1999/xlink">
    <title>Group</title>
    <defs>
        <linearGradient x1="100%" y1="-3.32550221e-13%" x2="4.46431087e-13%" y2="-3.32550221e-13%" id="linearGradient-1">
            <stop stop-color="#D27F67" offset="0%"></stop>
            <stop stop-color="#FFFFFF" offset="100%"></stop>
        </linearGradient>
        <linearGradient x1="100%" y1="-1.31058732e-12%" x2="-3.54084218%" y2="-1.31058732e-12%" id="linearGradient-2">
            <stop stop-color="#CBFFFE" offset="0%"></stop>
            <stop stop-color="#5CB38D" offset="48.3392112%"></stop>
            <stop stop-color="#000000" offset="100%"></stop>
        </linearGradient>
        <linearGradient x1="100%" y1="1.31042324e-12%" x2="1.2031672e-13%" y2="-2.58913546e-12%" id="linearGradient-3">
            <stop stop-color="#46F7FB" offset="0%"></stop>
            <stop stop-color="#FF4A01" offset="100%"></stop>
        </linearGradient>
        <linearGradient x1="50%" y1="0%" x2="50%" y2="100%" id="linearGradient-4">
            <stop stop-color="#129AE5" offset="0%"></stop>
            <stop stop-color="#FFAFC8" offset="100%"></stop>
        </linearGradient>
    </defs>
    <g id="Page-1" stroke="none" stroke-width="1" fill="none" fill-rule="evenodd">
        <g id="Desktop-1440" transform="translate(-100, -60)">
            <g id="Group" transform="translate(100, 60)">
                <path d="M56.998,28.298 L57.0000047,28 C57.0000047,44.0162577 44.2397878,57 28.4992627,57 C12.856664,57 0.157406203,44.1773066 1.49322809e-15,28.298571 L3.526,28.298 L3.52773163,28.42024 C3.74827953,42.2612774 14.8439514,53.4123711 28.4992627,53.4123711 C42.19464,53.4123711 53.3153355,42.1957445 53.472454,28.2983377 L56.998,28.298 Z" id="Combined-Shape-Copy-5" fill="url(#linearGradient-1)" fill-rule="nonzero"></path>
                <path d="M109.998,28.298 L110.000005,28 C110.000005,44.0162577 97.2397878,57 81.4992627,57 C65.856664,57 53.1574062,44.1773066 53,28.298571 L56.526,28.298 L56.5277316,28.42024 C56.7482795,42.2612774 67.8439514,53.4123711 81.4992627,53.4123711 C95.19464,53.4123711 106.315336,42.1957445 106.472454,28.2983377 L109.998,28.298 Z" id="Combined-Shape-Copy-9" fill="#FFFFFF" fill-rule="nonzero" opacity="0.109999999"></path>
                <path d="M109.998,0.298 L110.000005,0 C110.000005,16.0162577 97.2397878,29 81.4992627,29 C65.856664,29 53.1574062,16.1773066 53,0.29857105 L56.526,0.298 L56.5277316,0.420240023 C56.7482795,14.2612774 67.8439514,25.4123711 81.4992627,25.4123711 C95.19464,25.4123711 106.315336,14.1957445 106.472454,0.298337679 L109.998,0.298 Z" id="Combined-Shape-Copy-7" fill="#FFFFFF" fill-rule="nonzero" opacity="0.200000003" transform="translate(81.5, 14.5) scale(1, -1) translate(-81.5, -14.5)"></path>
                <path d="M162.998,28.298 L163.000005,28 C163.000005,44.0162577 150.239788,57 134.499263,57 C118.856664,57 106.157406,44.1773066 106,28.298571 L109.526,28.298 L109.527732,28.42024 C109.74828,42.2612774 120.843951,53.4123711 134.499263,53.4123711 C148.19464,53.4123711 159.315336,42.1957445 159.472454,28.2983377 L162.998,28.298 Z" id="Combined-Shape-Copy-10" fill="url(#linearGradient-2)" fill-rule="nonzero"></path>
                <path d="M123.998002,14.2980023 L124.000007,14.0000023 C124.000007,30.0162601 111.23979,43.0000023 95.499265,43.0000023 C79.8566663,43.0000023 67.1574085,30.1773089 67.0000023,14.2985734 L70.5260023,14.2980023 L70.527734,14.4202424 C70.7482819,28.2612797 81.8439538,39.4123735 95.499265,39.4123735 C109.194642,39.4123735 120.315338,28.1957468 120.472456,14.29834 L123.998002,14.2980023 Z" id="Combined-Shape-Copy-8" fill="url(#linearGradient-3)" fill-rule="nonzero" transform="translate(95.5, 28.5) rotate(-90) translate(-95.5, -28.5)"></path>
                <path d="M84.5521017,28 L84.553157,28.1189687 C84.7752884,41.6217103 95.9506251,52.5002544 109.703979,52.5002544 L109.999102,52.497 L110.000005,55.998723 C109.901447,55.9997043 109.802771,56.0001962 109.703979,56.0001962 C93.9492273,56.0001962 81.1588899,43.4911598 81.0001017,28.0007397 L84.5521017,28 Z" id="Combined-Shape-Copy-11" fill="#FFFFFF" fill-rule="nonzero" opacity="0.109999999" transform="translate(95.5001, 42.0001) scale(-1, -1) translate(-95.5001, -42.0001)"></path>
                <path d="M81.2073904,27.9999938 L81.2070047,31.5259938 L81.0881684,31.5277221 C67.4852087,31.7482701 56.5259233,42.843943 56.5259233,56.4992555 C56.5259233,70.2925004 67.7077266,81.4741347 81.50118,81.4741347 C95.1964427,81.4741347 106.317106,70.4511299 106.47474,56.7934229 L110.000005,56.7929938 L109.998537,56.9705674 C109.746849,72.4937104 97.0845368,85 81.50118,85 C65.7604155,85 53.0000047,72.239782 53.0000047,56.4992555 C53.0000047,40.8567737 65.6019461,28.1575886 81.2073904,27.9999938 Z" id="Combined-Shape-Copy-6" fill="url(#linearGradient-4)" fill-rule="nonzero"></path>
                <rect id="Rectangle-Copy-18" fill="#E9BFB3" x="28.0000047" y="74" width="4" height="10"></rect>
            </g>
        </g>
    </g>
</svg>